# xmcd
#
# Track frame offsets: 
#        150
#        17615
#        34324
#        48186
#        63247
#        79731
#        91642
#        102644
#        118227
#        138243
#        154133
#        174524
#        183294
#        194088
#        209681
#        218283
#        229226
#        246843
#        252916
#        261839
#
# Disc length: 3585 seconds
#
# Revision: 0
# Processed by: cddbd v1.5.1PL0 Copyright (c) Steve Scherf et al.
# Submitted via: ExactAudioCopy v0.95b3
#
DISCID=180dff14
DTITLE=Matuska Waldemar - Jo, tresne zraly
DYEAR=2000
DGENRE=Pop
TTITLE0=Jo, tresne zraly
TTITLE1=Tam za vodou v rakosi
TTITLE2=Pada hvezda
TTITLE3=Rudy pav
TTITLE4=Divoky kone
TTITLE5=Bud porad se mnou
TTITLE6=Tereza
TTITLE7=Mam maly stan
TTITLE8=Slany dest
TTITLE9=Pisnicka pro Zuzanu
TTITLE10=Ach ta laska nebeska
TTITLE11=Souvenirs
TTITLE12=Mister Rock a Mister Roll
TTITLE13=Arie mesice
TTITLE14=Kocka na okne
TTITLE15=Male kote
TTITLE16=Uz davno nejsem dite
TTITLE17=O Zuzano
TTITLE18=Cesta do Mexika
TTITLE19=Stara chajda drnova
EXTD=
EXTT0=
EXTT1=
EXTT2=
EXTT3=
EXTT4=
EXTT5=
EXTT6=
EXTT7=
EXTT8=
EXTT9=
EXTT10=
EXTT11=
EXTT12=
EXTT13=
EXTT14=
EXTT15=
EXTT16=
EXTT17=
EXTT18=
EXTT19=
PLAYORDER=
